<svg xmlns="http://www.w3.org/2000/svg" width="181.815" height="181.815" viewBox="0 0 181.815 181.815">
  <g id="noun-qr-3887002" transform="translate(-73.88 -8.863)">
    <path id="Path_435" data-name="Path 435" d="M255.051,8.863H84.5A5.641,5.641,0,0,0,78.869,14.5V185.045a5.641,5.641,0,0,0,5.633,5.633H255.051a5.641,5.641,0,0,0,5.633-5.633V14.5a5.64,5.64,0,0,0-5.633-5.633Zm1.878,176.182a1.879,1.879,0,0,1-1.878,1.878H84.5a1.88,1.88,0,0,1-1.878-1.878V14.5A1.881,1.881,0,0,1,84.5,12.618H255.052A1.881,1.881,0,0,1,256.93,14.5Z" transform="translate(-4.989)" fill="#fff"/>
    <path id="Path_436" data-name="Path 436" d="M262.141,63.567h8.626v4.316h4.315V72.2H279.4V63.567h-4.313V59.254h-4.315V50.628h4.315v4.316h12.939v4.31h4.313V72.2h4.314V67.883h4.315V72.2h4.313V67.883h4.313V59.254h8.627v-4.31h8.626V50.629h-8.626V46.316H313.9v8.628h-8.626v8.623h-8.628V59.255h4.316v-4.31h-4.316V50.629H283.709V46.316h4.311V42h-8.626v4.314H266.453v8.628H262.14V46.316h-4.314v4.313h-4.31v4.316h4.31v4.31h4.314Z" transform="translate(-121.078 -22.028)" fill="#fff"/>
    <path id="Path_437" data-name="Path 437" d="M395.03,42h8.626v4.314H395.03Z" transform="translate(-215.144 -22.026)" fill="#fff"/>
    <path id="Path_438" data-name="Path 438" d="M472.21,42h4.314v8.627H472.21Z" transform="translate(-266.446 -22.026)" fill="#fff"/>
    <path id="Path_439" data-name="Path 439" d="M142.19,42H111.995V72.195H142.19Zm-4.313,25.881H116.308V46.314h21.566V67.881Z" transform="translate(-27.008 -22.026)" fill="#fff"/>
    <path id="Path_440" data-name="Path 440" d="M382.16,54.867h4.314V59.18H382.16Z" transform="translate(-206.589 -30.579)" fill="#fff"/>
    <path id="Path_441" data-name="Path 441" d="M497.95,72.19h30.195V42H497.95Zm4.316-25.88h21.566V67.875H502.266Z" transform="translate(-283.556 -22.023)" fill="#fff"/>
    <path id="Path_442" data-name="Path 442" d="M137.73,67.73h12.94V80.67H137.73Z" transform="translate(-44.114 -39.129)" fill="#fff"/>
    <path id="Path_443" data-name="Path 443" d="M227.79,67.73H232.1v4.314H227.79Z" transform="translate(-103.978 -39.129)" fill="#fff"/>
    <path id="Path_444" data-name="Path 444" d="M523.68,67.73h12.94V80.67H523.68Z" transform="translate(-300.659 -39.129)" fill="#fff"/>
    <path id="Path_445" data-name="Path 445" d="M214.92,93.457V97.77h4.314v4.316h4.313V106.4h4.316v-4.313h4.31V93.457Z" transform="translate(-95.423 -56.23)" fill="#fff"/>
    <path id="Path_446" data-name="Path 446" d="M343.57,93.457h4.313V97.77H343.57Z" transform="translate(-180.938 -56.23)" fill="#fff"/>
    <path id="Path_447" data-name="Path 447" d="M446.49,93.457h8.626V97.77H446.49Z" transform="translate(-249.35 -56.23)" fill="#fff"/>
    <path id="Path_448" data-name="Path 448" d="M433.62,106.32h4.317v4.314H433.62Z" transform="translate(-240.795 -64.78)" fill="#fff"/>
    <path id="Path_449" data-name="Path 449" d="M202.136,119.19h-4.314v8.627H189.2v4.313h12.94v-4.313h4.313V123.5h-4.313Z" transform="translate(-78.324 -73.335)" fill="#fff"/>
    <path id="Path_450" data-name="Path 450" d="M275.007,119.19V123.5h-4.313V119.19H266.38v21.569h4.314v-4.313h4.313v-8.628h4.313V119.19Z" transform="translate(-129.629 -73.335)" fill="#fff"/>
    <path id="Path_451" data-name="Path 451" d="M270.687,183.9H275v-4.316h8.628V183.9h8.627v-4.316h-4.314v-4.313h4.314v-8.627h-8.627v-4.311h-4.316v-4.314h8.628v4.314h12.939v-4.314h-4.313V149.39h4.313v-4.314h4.314v-4.31h-8.627v-8.628h4.313v4.316h4.314v-4.316h4.316V123.51h-4.316v4.314h-8.627V119.2h-4.311v4.313h-4.314v8.627h4.314v12.939H275v4.314h17.256V153.7H270.687v-8.627h-4.314v21.569H275v4.314h4.313v4.313h-8.626v-4.313h-4.314v8.626h4.314Z" transform="translate(-129.624 -73.34)" fill="#fff"/>
    <path id="Path_452" data-name="Path 452" d="M416.52,127.817V119.19h-4.313V123.5h-4.313v4.314Z" transform="translate(-223.695 -73.335)" fill="#fff"/>
    <path id="Path_453" data-name="Path 453" d="M446.49,119.19H450.8V123.5H446.49Z" transform="translate(-249.35 -73.335)" fill="#fff"/>
    <path id="Path_454" data-name="Path 454" d="M472.21,119.19h4.314V123.5H472.21Z" transform="translate(-266.446 -73.335)" fill="#fff"/>
    <path id="Path_455" data-name="Path 455" d="M459.35,132.05h4.313v4.314H459.35Z" transform="translate(-257.898 -81.883)" fill="#fff"/>
    <path id="Path_456" data-name="Path 456" d="M304.97,144.92h4.313v4.313H304.97Z" transform="translate(-155.28 -90.438)" fill="#fff"/>
    <path id="Path_457" data-name="Path 457" d="M433.62,144.92h4.317v4.313H433.62Z" transform="translate(-240.795 -90.438)" fill="#fff"/>
    <path id="Path_458" data-name="Path 458" d="M463.745,149.24v4.316h4.316v-8.628H455.118v4.313h-8.626v8.628H450.8v4.31h4.313v-8.623h4.314V149.24Z" transform="translate(-249.351 -90.443)" fill="#fff"/>
    <path id="Path_459" data-name="Path 459" d="M523.68,144.92h4.313v4.313H523.68Z" transform="translate(-300.659 -90.438)" fill="#fff"/>
    <path id="Path_460" data-name="Path 460" d="M176.32,166.414h8.628V162.1h-4.313v-4.316H176.32Z" transform="translate(-69.765 -98.99)" fill="#fff"/>
    <path id="Path_461" data-name="Path 461" d="M227.79,157.79H232.1V162.1H227.79Z" transform="translate(-103.978 -98.993)" fill="#fff"/>
    <path id="Path_462" data-name="Path 462" d="M317.84,157.79h4.313v8.627H317.84Z" transform="translate(-163.835 -98.993)" fill="#fff"/>
    <path id="Path_463" data-name="Path 463" d="M407.89,157.79v4.316H412.2v4.313h4.313V157.79Z" transform="translate(-223.692 -98.993)" fill="#fff"/>
    <path id="Path_464" data-name="Path 464" d="M536.54,157.79h4.314V162.1H536.54Z" transform="translate(-309.207 -98.993)" fill="#fff"/>
    <path id="Path_465" data-name="Path 465" d="M562.27,157.79h4.314V162.1H562.27Z" transform="translate(-326.31 -98.993)" fill="#fff"/>
    <path id="Path_466" data-name="Path 466" d="M120.626,170.806h4.313v-4.313h4.313V144.927h-8.626v4.313H112v4.314h4.313v12.94h4.313v4.311Zm0-17.25h4.313v8.626h-4.313Z" transform="translate(-27.01 -90.443)" fill="#fff"/>
    <path id="Path_467" data-name="Path 467" d="M382.16,174.969h4.316v4.31h4.313v-8.623H382.16Z" transform="translate(-206.589 -107.545)" fill="#fff"/>
    <path id="Path_468" data-name="Path 468" d="M510.963,183.591v-8.625H506.65v4.31h-8.626v4.314h-4.313v-8.625H489.4v-4.313h-4.313v8.623H489.4v4.314h-4.313V187.9H506.65V183.59Z" transform="translate(-275.003 -107.543)" fill="#fff"/>
    <path id="Path_469" data-name="Path 469" d="M510.82,170.66h4.313v4.313H510.82Z" transform="translate(-292.111 -107.548)" fill="#fff"/>
    <path id="Path_470" data-name="Path 470" d="M214.92,183.52h4.313v4.313H214.92Z" transform="translate(-95.423 -116.096)" fill="#fff"/>
    <path id="Path_471" data-name="Path 471" d="M184.944,196.461h8.627v17.256h4.313v-8.626H202.2v-8.63h-4.316v-4.313H202.2v-8.625h-4.316v4.31h-4.313v4.314h-4.314v-4.314H176.315v4.314h8.628Z" transform="translate(-69.762 -116.099)" fill="#fff"/>
    <path id="Path_472" data-name="Path 472" d="M429.387,183.52h-4.314v4.31H420.76v12.943H433.7v-4.316h-4.313v-4.313H433.7V187.83h-4.313Z" transform="translate(-232.247 -116.096)" fill="#fff"/>
    <path id="Path_473" data-name="Path 473" d="M575.14,196.38h4.313v8.627H575.14Z" transform="translate(-334.865 -124.644)" fill="#fff"/>
    <path id="Path_474" data-name="Path 474" d="M112,209.24h4.313v8.627H112Z" transform="translate(-27.011 -133.192)" fill="#fff"/>
    <path id="Path_475" data-name="Path 475" d="M176.394,217.874v-4.316h-8.628v-4.313h-4.313v8.628Z" transform="translate(-61.212 -133.196)" fill="#fff"/>
    <path id="Path_476" data-name="Path 476" d="M369.372,209.24h-4.316v4.313h-4.314v4.316h4.314v4.314h4.316v4.311h-4.316v-4.311h-4.314v4.311h-4.313v8.627h4.313v-4.313h4.314v4.313h-4.314v4.313h4.314v4.316h4.316V230.808h4.313v4.313H378v-8.627h-4.313v-4.311H378v-4.314h-8.626Z" transform="translate(-189.485 -133.192)" fill="#fff"/>
    <path id="Path_477" data-name="Path 477" d="M459.35,209.24h4.313v4.313H459.35Z" transform="translate(-257.898 -133.192)" fill="#fff"/>
    <path id="Path_478" data-name="Path 478" d="M549.41,226.424h4.313v4.314h8.627v-4.314h-4.313v-4.316H549.41Z" transform="translate(-317.762 -141.746)" fill="#fff"/>
    <path id="Path_479" data-name="Path 479" d="M124.86,234.98h4.313v4.314H124.86Z" transform="translate(-35.559 -150.302)" fill="#fff"/>
    <path id="Path_480" data-name="Path 480" d="M202.05,234.98h4.313v4.314H202.05Z" transform="translate(-86.868 -150.302)" fill="#fff"/>
    <path id="Path_481" data-name="Path 481" d="M472.21,234.98h4.314v4.314H472.21Z" transform="translate(-266.446 -150.302)" fill="#fff"/>
    <path id="Path_482" data-name="Path 482" d="M497.95,234.98h4.314v4.314H497.95Z" transform="translate(-283.556 -150.302)" fill="#fff"/>
    <path id="Path_483" data-name="Path 483" d="M116.31,247.84H112v12.939h4.313v4.313h8.627v-8.626H116.31Z" transform="translate(-27.009 -158.85)" fill="#fff"/>
    <path id="Path_484" data-name="Path 484" d="M189.19,247.84H193.5v4.312H189.19Z" transform="translate(-78.32 -158.85)" fill="#fff"/>
    <path id="Path_485" data-name="Path 485" d="M425.07,252.152v8.627H433.7v12.943h4.313v12.939h4.314v4.313h4.313v-8.626h-4.313v-12.94H438.01v-4.316h12.943v-4.313h-4.315v-4.313h-8.627v-4.314H433.7v4.314h-4.313V247.84h-8.627v4.311Z" transform="translate(-232.245 -158.85)" fill="#fff"/>
    <path id="Path_486" data-name="Path 486" d="M163.534,265.017V260.7H150.592v4.314H154.9v4.313h12.942v-4.313Z" transform="translate(-52.664 -167.4)" fill="#fff"/>
    <path id="Path_487" data-name="Path 487" d="M202.05,260.7h4.313v4.314H202.05Z" transform="translate(-86.868 -167.398)" fill="#fff"/>
    <path id="Path_488" data-name="Path 488" d="M502.265,269.327h4.313V260.7h-8.628v4.314h4.316Z" transform="translate(-283.555 -167.398)" fill="#fff"/>
    <path id="Path_489" data-name="Path 489" d="M549.486,260.7h-12.94v17.256h4.313V265.014h4.313v4.313H553.8v-4.313h-4.313Z" transform="translate(-309.211 -167.398)" fill="#fff"/>
    <path id="Path_490" data-name="Path 490" d="M210.761,282.2v-8.626h-4.316v4.313h-4.313v-4.313h-4.314v4.313h-4.313V282.2h-4.313v4.316h4.313v4.314h4.313V282.2h4.314v4.316h4.313V282.2Z" transform="translate(-78.322 -175.955)" fill="#fff"/>
    <path id="Path_491" data-name="Path 491" d="M112,299.3h4.313v4.314H112Z" transform="translate(-27.011 -193.056)" fill="#fff"/>
    <path id="Path_492" data-name="Path 492" d="M129.177,307.932v-4.314h-4.314V329.5h4.314v-8.626h4.313v-4.313h-4.313v-4.314h12.939v-4.312H137.8v-4.314h4.313V299.3H133.49v8.63Z" transform="translate(-35.561 -193.058)" fill="#fff"/>
    <path id="Path_493" data-name="Path 493" d="M236.483,346.748v-4.31h-12.94v-4.316h8.626v-4.314h4.314v-4.313h-4.314v-4.313H240.8v-4.313h4.313V329.5h4.316v-4.313h4.313v-4.313h-4.313v-4.313h-4.316v-8.626h4.316v-4.314H240.8v8.626h-4.313v4.314h-8.625v-4.314h4.31V299.3h-4.31v4.316h-4.316v8.626H219.23v4.314h4.313v4.313h4.316v12.939H219.23v4.314h-4.314v8.626h8.627v4.316H219.23v4.314h-4.314V364h4.314v8.626h12.939v-4.311h-8.626V364h4.316V346.749h4.31V359.69h4.314v-8.626H240.8v-4.316Z" transform="translate(-95.42 -193.057)" fill="#fff"/>
    <path id="Path_494" data-name="Path 494" d="M356.43,299.3h4.313v4.314H356.43Z" transform="translate(-189.486 -193.056)" fill="#fff"/>
    <path id="Path_495" data-name="Path 495" d="M420.76,299.3h4.313v4.314H420.76Z" transform="translate(-232.247 -193.056)" fill="#fff"/>
    <path id="Path_496" data-name="Path 496" d="M562.27,299.3h4.314v4.314H562.27Z" transform="translate(-326.31 -193.056)" fill="#fff"/>
    <path id="Path_497" data-name="Path 497" d="M343.639,316.486H330.7V320.8h4.314v4.314H330.7v4.313h4.314v4.313h4.311v-8.626h4.313V320.8h4.314v-8.626h-4.314Z" transform="translate(-172.383 -201.612)" fill="#fff"/>
    <path id="Path_498" data-name="Path 498" d="M407.89,312.17H412.2v4.314H407.89Z" transform="translate(-223.692 -201.611)" fill="#fff"/>
    <path id="Path_499" data-name="Path 499" d="M433.62,312.17h4.317V320.8H433.62Z" transform="translate(-240.795 -201.611)" fill="#fff"/>
    <path id="Path_500" data-name="Path 500" d="M506.574,338.046h4.313V329.42h8.626v-4.313h4.314v-4.314h-12.94v-4.312h-4.313v-4.314h-4.313v4.314h-4.316v8.626h8.628Z" transform="translate(-283.553 -201.609)" fill="#fff"/>
    <path id="Path_501" data-name="Path 501" d="M189.19,325.04H193.5v4.311H189.19Z" transform="translate(-78.32 -210.166)" fill="#fff"/>
    <path id="Path_502" data-name="Path 502" d="M395.1,342.289h4.313v-12.94h-8.626v-4.311h-4.313v8.626H395.1v4.313h-4.313V346.6h-8.628v4.313H395.1Z" transform="translate(-206.591 -210.164)" fill="#fff"/>
    <path id="Path_503" data-name="Path 503" d="M575.14,325.04h4.313v4.311H575.14Z" transform="translate(-334.865 -210.166)" fill="#fff"/>
    <path id="Path_504" data-name="Path 504" d="M317.84,337.89h4.313V342.2H317.84Z" transform="translate(-163.835 -218.707)" fill="#fff"/>
    <path id="Path_505" data-name="Path 505" d="M189.19,350.76H193.5v4.313H189.19Z" transform="translate(-78.32 -227.262)" fill="#fff"/>
    <path id="Path_506" data-name="Path 506" d="M446.49,350.76H450.8v8.627H446.49Z" transform="translate(-249.35 -227.262)" fill="#fff"/>
    <path id="Path_507" data-name="Path 507" d="M189.264,367.94h-8.626v-4.313h-4.316v8.626h12.942Z" transform="translate(-69.766 -235.815)" fill="#fff"/>
    <path id="Path_508" data-name="Path 508" d="M214.92,363.62h4.313v4.314H214.92Z" transform="translate(-95.423 -235.81)" fill="#fff"/>
    <path id="Path_509" data-name="Path 509" d="M562.27,363.62H570.9v4.314H562.27Z" transform="translate(-326.31 -235.81)" fill="#fff"/>
    <path id="Path_510" data-name="Path 510" d="M150.59,376.49H154.9V380.8H150.59Z" transform="translate(-52.662 -244.365)" fill="#fff"/>
    <path id="Path_511" data-name="Path 511" d="M322.15,380.8h-4.313v4.313h4.313v4.314h4.314v-4.314h8.625V380.8h-8.625v-4.313H322.15Z" transform="translate(-163.833 -244.363)" fill="#fff"/>
    <path id="Path_512" data-name="Path 512" d="M433.62,376.49h4.317V380.8H433.62Z" transform="translate(-240.795 -244.365)" fill="#fff"/>
    <path id="Path_513" data-name="Path 513" d="M112,389.35h4.313v4.313H112Z" transform="translate(-27.011 -252.913)" fill="#fff"/>
    <path id="Path_514" data-name="Path 514" d="M163.46,389.35h4.313v8.627H163.46Z" transform="translate(-61.217 -252.913)" fill="#fff"/>
    <path id="Path_515" data-name="Path 515" d="M459.35,389.35h4.313v4.313H459.35Z" transform="translate(-257.898 -252.913)" fill="#fff"/>
    <path id="Path_516" data-name="Path 516" d="M553.72,393.66v-4.313h-4.313v8.627h8.627V393.66Z" transform="translate(-317.76 -252.911)" fill="#fff"/>
    <path id="Path_517" data-name="Path 517" d="M137.73,402.21h4.313v4.314H137.73Z" transform="translate(-44.114 -261.461)" fill="#fff"/>
    <path id="Path_518" data-name="Path 518" d="M189.19,402.21h8.627v4.314H189.19Z" transform="translate(-78.32 -261.461)" fill="#fff"/>
    <path id="Path_519" data-name="Path 519" d="M300.81,419.471v-8.626H287.867v-4.316h4.316v-4.314H279.241v4.314h4.313v8.626h4.313v4.316h-4.313v4.314h21.567v-4.314Z" transform="translate(-138.178 -261.465)" fill="#fff"/>
    <path id="Path_520" data-name="Path 520" d="M369.29,402.21H373.6v4.314H369.29Z" transform="translate(-198.034 -261.461)" fill="#fff"/>
    <path id="Path_521" data-name="Path 521" d="M412.286,410.841v4.31H416.6v-8.626h-4.313v-4.314h-4.314v4.314h-8.626v4.316h-4.313v12.94h4.313v-8.63h4.313v-4.31Z" transform="translate(-215.146 -261.462)" fill="#fff"/>
    <path id="Path_522" data-name="Path 522" d="M343.57,415.08h4.313v4.314H343.57Z" transform="translate(-180.938 -270.016)" fill="#fff"/>
    <path id="Path_523" data-name="Path 523" d="M480.847,393.659H472.22v21.569h4.314v8.627h4.313v-4.314h4.314v-4.313h4.313v4.313h-4.313v8.63h4.313v-4.314h4.313V410.913H498.1v-8.625h-4.314v-8.63h-4.313v-4.313h-8.627Zm8.628,17.256h-12.94v-12.94h12.94Z" transform="translate(-266.453 -252.911)" fill="#fff"/>
    <path id="Path_524" data-name="Path 524" d="M570.9,415.08h-4.313V419.4H562.27v8.626H570.9Z" transform="translate(-326.31 -270.016)" fill="#fff"/>
    <path id="Path_525" data-name="Path 525" d="M356.509,427.95H352.2v4.31h-4.313v4.316H352.2v4.314h-4.313v8.626h-4.312v8.626H352.2V453.83h4.314v-4.314H352.2V445.2h8.63v-4.312H356.51Z" transform="translate(-180.939 -278.571)" fill="#fff"/>
    <path id="Path_526" data-name="Path 526" d="M497.95,427.95h4.314v4.311H497.95Z" transform="translate(-283.556 -278.571)" fill="#fff"/>
    <path id="Path_527" data-name="Path 527" d="M112,458.145h30.195V427.953H112Zm4.313-25.881h21.566v21.57H116.313Z" transform="translate(-27.011 -278.573)" fill="#fff"/>
    <path id="Path_528" data-name="Path 528" d="M416.52,440.81h-4.313v12.942h-4.313v4.314h8.626v4.314h-4.313v4.311h8.627V462.38h4.313v-4.314h-4.313v-4.314H416.52Z" transform="translate(-223.695 -287.119)" fill="#fff"/>
    <path id="Path_529" data-name="Path 529" d="M137.73,453.68h12.94v12.943H137.73Z" transform="translate(-44.114 -295.674)" fill="#fff"/>
    <path id="Path_530" data-name="Path 530" d="M450.8,453.68h-4.313v8.626h8.626v-4.311H450.8Z" transform="translate(-249.348 -295.674)" fill="#fff"/>
    <path id="Path_531" data-name="Path 531" d="M549.41,453.68h4.313v4.314H549.41Z" transform="translate(-317.762 -295.674)" fill="#fff"/>
    <path id="Path_532" data-name="Path 532" d="M562.27,479.41h4.314v4.314H562.27Z" transform="translate(-326.31 -312.777)" fill="#fff"/>
    <path id="Path_533" data-name="Path 533" d="M279.24,492.27h8.627v4.314H279.24Z" transform="translate(-138.177 -321.325)" fill="#fff"/>
    <path id="Path_534" data-name="Path 534" d="M317.84,492.27h4.313V500.9H317.84Z" transform="translate(-163.835 -321.325)" fill="#fff"/>
    <path id="Path_535" data-name="Path 535" d="M540.86,496.587V500.9H553.8v-4.312h-8.627v-4.314h-8.626v4.314Z" transform="translate(-309.212 -321.327)" fill="#fff"/>
    <path id="Path_536" data-name="Path 536" d="M485.08,505.14h4.313v4.312H485.08Z" transform="translate(-275.001 -329.88)" fill="#fff"/>
    <path id="Path_537" data-name="Path 537" d="M523.68,505.14h4.313v4.312H523.68Z" transform="translate(-300.659 -329.88)" fill="#fff"/>
  </g>
</svg>
