<svg xmlns="http://www.w3.org/2000/svg" width="141.495" height="211.055" viewBox="0 0 141.495 211.055">
  <g id="noun-qr-scan-5039239" transform="translate(-119.478 -33.61)">
    <path id="Path_407" data-name="Path 407" d="M240.174,213.53a14.407,14.407,0,0,1-5.42,4.028v3.118l1.991,1.536a13.937,13.937,0,0,1,3.43,3.813Z" transform="translate(-93.889 -102.864)" fill="#fff"/>
    <path id="Path_408" data-name="Path 408" d="M203.509,183.734a9.38,9.38,0,0,0,6.284-3.622,9.5,9.5,0,0,0-1.752-13.31l-5.228-4.005a9.4,9.4,0,0,0-5.757-1.967,10.713,10.713,0,0,0-1.246.072,9.38,9.38,0,0,0-6.284,3.622,9.5,9.5,0,0,0,1.752,13.31l5.228,4.005a9.552,9.552,0,0,0,7,1.9Z" transform="translate(-66.912 -72.734)" fill="#fff"/>
    <path id="Path_409" data-name="Path 409" d="M200.759,251.444a9.38,9.38,0,0,0,6.284-3.622,9.5,9.5,0,0,0-1.752-13.31l-5.228-4.005a9.4,9.4,0,0,0-5.757-1.967,10.714,10.714,0,0,0-1.246.072,9.38,9.38,0,0,0-6.284,3.622,9.5,9.5,0,0,0,1.752,13.31l5.228,4.005a9.552,9.552,0,0,0,7,1.9Z" transform="translate(-65.339 -111.445)" fill="#fff"/>
    <path id="Path_410" data-name="Path 410" d="M240.174,277.428c-.264.408-.527.815-.84,1.223a14.2,14.2,0,0,1-4.58,3.885v4.413l3.453,2.662a13.382,13.382,0,0,1,1.967,1.87V277.427Z" transform="translate(-93.889 -139.395)" fill="#fff"/>
    <path id="Path_411" data-name="Path 411" d="M206.414,319.376a7.817,7.817,0,0,0,3.743-13.959L203.3,300.14a7.817,7.817,0,0,0-9.523,12.4l6.859,5.276A7.816,7.816,0,0,0,206.414,319.376Z" transform="translate(-68.715 -151.461)" fill="#fff"/>
    <path id="Path_412" data-name="Path 412" d="M234.75,352.849l2.111,1.631a12.885,12.885,0,0,1,3.309,3.838V347.934a12.5,12.5,0,0,1-5.42,3.766v1.174Z" transform="translate(-93.887 -179.705)" fill="#fff"/>
    <path id="Path_413" data-name="Path 413" d="M365.738,180.887c-.887-.527-3.406-.84-6.764.432-8.082,3.046-11.728,11.272-13.022,15.038v81.93a10.731,10.731,0,0,1-10.72,10.72h-75.5c4.054,5.2,11.8,14.294,18.252,16.909,1.847.743,3.766,1.343,5.8,1.942,8.346,2.543,17.8,5.42,24.631,20.626a72.448,72.448,0,0,0,21.993-2.158,57.494,57.494,0,0,0,19.378-8.922,50.95,50.95,0,0,0,15.47-18.252,59.385,59.385,0,0,1-5.2-5.78c-4.437-5.685-6.4-10.7-5.8-14.869a54.107,54.107,0,0,1,2.23-8.658c1.991-6.356,4.485-14.27,3.5-26.55l-.192-2.23c-1.343-16.6-1.8-22.185,4.606-34.729,5.757-11.3,6.356-22.473,1.367-25.422Z" transform="translate(-108.168 -83.938)" fill="#fff"/>
    <path id="Path_414" data-name="Path 414" d="M326.967,194.322V39.606a6,6,0,0,0-6-6H240.746a6,6,0,0,0-6,6v48.3l3.165,2.422a13.819,13.819,0,0,1,2.255,2.183l0-51.132a2.355,2.355,0,0,1,2.351-2.351h76.628a2.355,2.355,0,0,1,2.351,2.351V192.525a2.355,2.355,0,0,1-2.351,2.351H242.519a2.355,2.355,0,0,1-2.351-2.351v-1.752a10.679,10.679,0,0,1-1.007,1.536,12.658,12.658,0,0,1-4.221,3.525,6.021,6.021,0,0,0,5.8,4.485h80.2a6,6,0,0,0,6-6Z" transform="translate(-93.887)" fill="#fff"/>
    <path id="Path_415" data-name="Path 415" d="M211.98,366.541l-3.142-2.4a7.817,7.817,0,0,0-9.523,12.4l3.142,2.4a7.816,7.816,0,0,0,5.78,1.559,6.489,6.489,0,0,0,1.128-.239,1.934,1.934,0,0,1,.624-.192,7.8,7.8,0,0,0,2.014-13.5Z" transform="translate(-71.884 -188.053)" fill="#fff"/>
    <path id="Path_416" data-name="Path 416" d="M293.894,162.4H276.7v17.2h17.2Zm-4.1,13.094H280.8V166.5h8.994Z" transform="translate(-117.869 -73.632)" fill="#fff"/>
    <path id="Path_417" data-name="Path 417" d="M291.65,177.35h4.388v4.388H291.65Z" transform="translate(-126.418 -82.179)" fill="#fff"/>
    <path id="Path_418" data-name="Path 418" d="M293.894,253.68H276.7v17.2h17.2Zm-4.1,13.094H280.8V257.78h8.994Z" transform="translate(-117.869 -125.818)" fill="#fff"/>
    <path id="Path_419" data-name="Path 419" d="M291.65,268.63h4.388v4.388H291.65Z" transform="translate(-126.418 -134.366)" fill="#fff"/>
    <path id="Path_420" data-name="Path 420" d="M367.98,179.594h17.2V162.4h-17.2Zm4.1-13.094h8.994v8.994H372.08Z" transform="translate(-170.057 -73.631)" fill="#fff"/>
    <path id="Path_421" data-name="Path 421" d="M382.93,177.35h4.388v4.388H382.93Z" transform="translate(-178.604 -82.179)" fill="#fff"/>
    <path id="Path_422" data-name="Path 422" d="M354.03,167.21h4.1v3.813h-4.1Z" transform="translate(-162.082 -76.382)" fill="#fff"/>
    <path id="Path_423" data-name="Path 423" d="M329.89,177.69H339v4.1H329.89Z" transform="translate(-148.28 -82.373)" fill="#fff"/>
    <path id="Path_424" data-name="Path 424" d="M354.03,189.45h4.1v10.5h-4.1Z" transform="translate(-162.082 -89.097)" fill="#fff"/>
    <path id="Path_425" data-name="Path 425" d="M281.51,212.46h3.813v4.1H281.51Z" transform="translate(-120.621 -102.252)" fill="#fff"/>
    <path id="Path_426" data-name="Path 426" d="M306.738,216.359v-3.045H318.73v-4.1H306.738v3.07h-4.724v3.694h-9.69V225.4h4.1v-5.348h3.527V225.4h4.1v-5.516h-2.038v-3.527Z" transform="translate(-126.803 -100.395)" fill="#fff"/>
    <path id="Path_427" data-name="Path 427" d="M390.88,209.21h5.348v4.1H390.88Z" transform="translate(-183.15 -100.394)" fill="#fff"/>
    <path id="Path_428" data-name="Path 428" d="M362.368,235.893v-8.467h6.379v-4.1H358.292v2.59H353.3v4.1h4.989v5.876Z" transform="translate(-161.666 -108.464)" fill="#fff"/>
    <path id="Path_429" data-name="Path 429" d="M339.64,239.06h5.852v4.1H339.64Z" transform="translate(-153.855 -117.46)" fill="#fff"/>
    <path id="Path_430" data-name="Path 430" d="M389.37,235.65h5.972v4.1H389.37Z" transform="translate(-182.286 -115.51)" fill="#fff"/>
    <path id="Path_431" data-name="Path 431" d="M341.994,268.914V253.852h-4.1v5.492h-6.068v-4.077h-5.852v4.1h5.564v4.054h6.356v5.492Z" transform="translate(-146.041 -125.917)" fill="#fff"/>
    <path id="Path_432" data-name="Path 432" d="M328.05,279.21h4.1v4.221h-4.1Z" transform="translate(-147.228 -140.414)" fill="#fff"/>
    <path id="Path_433" data-name="Path 433" d="M379.45,260.57h-9.738v4.1h5.661v10.145h8.418v-4.1H379.45Z" transform="translate(-171.047 -129.757)" fill="#fff"/>
    <path id="Path_434" data-name="Path 434" d="M325.98,229.38h5.852v4.1H325.98Z" transform="translate(-146.045 -111.926)" fill="#fff"/>
  </g>
</svg>
